<svg width="108" height="125" viewBox="0 0 108 125" fill="none" xmlns="http://www.w3.org/2000/svg">
<path d="M85.3594 102.491L107.359 124.491H76.8596L54.8596 102.491L31.8596 124.491L1.35959 124.491L54.8596 71.9914L66.8596 83.4914C74.7048 79.909 88.1107 68.235 86.3596 52.4914C86.8305 39.4613 77.8443 20.8622 53.3596 20.4914C40.3596 20.4914 21.3782 30.866 21.8596 52.4914C21.8596 56.9914 24.459 73.156 36.8596 80.4914L21.8596 94.9914C12.8588 89.8672 -3.83882 65.1141 1.35959 46.4914C1.38016 36.81 12.7216 9.86426 35.3596 2.99135C45.3519 -0.452171 70.0726 -2.5877 85.3594 10.4914C94.7095 18.491 104.07 26.571 105.711 49.5492C106.01 58.5722 106.067 73.1606 96.3594 85.4914C92.7687 90.0522 82.1594 100.191 69.3594 104.991L85.3594 102.491Z" fill="#2CD37F"/>
</svg>
